<svg width="48" height="48" viewBox="0 0 48 48" fill="none" xmlns="http://www.w3.org/2000/svg">
<rect width="48" height="48" rx="24" fill="#0066CC"/>
<svg x="8" y="8" width="32" height="32" viewBox="0 0 32 32" fill="none">
<path d="M16 4C19.3137 4 22 6.68629 22 10V12H10C8.89543 12 8 12.8954 8 14V18C8 19.1046 8.89543 20 10 20H22V22C22 25.3137 19.3137 28 16 28C12.6863 28 10 25.3137 10 22V20H8C6.89543 20 6 19.1046 6 18V14C6 12.8954 6.89543 12 8 12H10V10C10 6.68629 12.6863 4 16 4Z" fill="white"/>
</svg>
</svg>

